<svg width="1280" height="640" viewBox="0 0 1280 640" fill="none" xmlns="http://www.w3.org/2000/svg">
  <defs>
    <linearGradient id="bg" x1="28" y1="26" x2="1240" y2="610" gradientUnits="userSpaceOnUse">
      <stop stop-color="#07121D"/>
      <stop offset="0.52" stop-color="#0D3759"/>
      <stop offset="1" stop-color="#176371"/>
    </linearGradient>
    <linearGradient id="badge" x1="72" y1="500" x2="322" y2="548" gradientUnits="userSpaceOnUse">
      <stop stop-color="#67E8F9"/>
      <stop offset="0.56" stop-color="#A3E4B5"/>
      <stop offset="1" stop-color="#FACC15"/>
    </linearGradient>
    <linearGradient id="panelBg" x1="770" y1="78" x2="1184" y2="566" gradientUnits="userSpaceOnUse">
      <stop stop-color="#17283E" stop-opacity="0.98"/>
      <stop offset="1" stop-color="#101E32" stop-opacity="0.94"/>
    </linearGradient>
    <linearGradient id="panelStroke" x1="768" y1="72" x2="1194" y2="570" gradientUnits="userSpaceOnUse">
      <stop stop-color="#67E8F9" stop-opacity="0.52"/>
      <stop offset="1" stop-color="#A78BFA" stop-opacity="0.24"/>
    </linearGradient>
    <filter id="glow" x="748" y="56" width="472" height="570" filterUnits="userSpaceOnUse">
      <feGaussianBlur stdDeviation="18"/>
    </filter>
  </defs>

  <rect width="1280" height="640" rx="34" fill="url(#bg)"/>

  <g opacity="0.12">
    <circle cx="154" cy="126" r="70" fill="#67E8F9"/>
    <circle cx="1092" cy="116" r="110" fill="#F59E0B"/>
    <circle cx="1118" cy="548" r="140" fill="#22C55E"/>
  </g>

  <g opacity="0.08" stroke="#D7E5F4">
    <path d="M82 520C212 470 344 462 468 500C598 540 720 546 870 484C986 436 1084 432 1198 458"/>
    <path d="M108 220C236 176 366 182 492 236C618 292 732 298 858 252C972 212 1074 214 1170 240"/>
    <path d="M118 304H1188"/>
    <path d="M210 88V554"/>
    <path d="M868 78V554"/>
  </g>

  <rect x="72" y="72" width="342" height="40" rx="20" fill="#101C30" fill-opacity="0.84" stroke="#67E8F9" stroke-opacity="0.18"/>
  <circle cx="98" cy="92" r="6" fill="#22C55E"/>
  <text x="116" y="99" fill="#D6E3FF" font-size="18" font-weight="700" font-family="Segoe UI, PingFang SC, Microsoft YaHei, sans-serif">Campus Service Platform</text>

  <text x="72" y="214" fill="#F8FAFC" font-size="88" font-weight="800" font-family="Segoe UI, PingFang SC, Microsoft YaHei, sans-serif">校园智服平台</text>
  <text x="74" y="282" fill="#C7E8FB" font-size="29" font-weight="500" font-family="Segoe UI, PingFang SC, Microsoft YaHei, sans-serif">
    <tspan x="74" dy="0">面向高校场景的校园服务、社区互动与知识库问答平台</tspan>
    <tspan x="74" dy="40">统一连接 Web 用户端、微信小程序与运营后台 Studio</tspan>
  </text>

  <rect x="72" y="366" width="170" height="44" rx="22" fill="#101C30" fill-opacity="0.68" stroke="#67E8F9" stroke-opacity="0.28"/>
  <text x="102" y="394" fill="#F8FAFC" font-size="23" font-weight="700" font-family="Segoe UI, PingFang SC, Microsoft YaHei, sans-serif">Web 用户端</text>

  <rect x="258" y="366" width="170" height="44" rx="22" fill="#101C30" fill-opacity="0.68" stroke="#34D399" stroke-opacity="0.28"/>
  <text x="284" y="394" fill="#F8FAFC" font-size="23" font-weight="700" font-family="Segoe UI, PingFang SC, Microsoft YaHei, sans-serif">微信小程序</text>

  <rect x="444" y="366" width="206" height="44" rx="22" fill="#101C30" fill-opacity="0.68" stroke="#A78BFA" stroke-opacity="0.28"/>
  <text x="472" y="394" fill="#F8FAFC" font-size="23" font-weight="700" font-family="Segoe UI, PingFang SC, Microsoft YaHei, sans-serif">运营后台 Studio</text>

  <text x="74" y="458" fill="#D9E6F5" font-size="20" font-weight="600" font-family="Segoe UI, PingFang SC, Microsoft YaHei, sans-serif">社区 / 搜索 / 教务 / 跑腿 / 消息 / 个人中心</text>
  <text x="74" y="490" fill="#9FD7F2" font-size="20" font-weight="600" font-family="Segoe UI, PingFang SC, Microsoft YaHei, sans-serif">FastAPI / RAG / 检索增强 / 引用回溯 / 后台运营</text>

  <path d="M72 522H596" stroke="#D7E5F4" stroke-opacity="0.16"/>
  <rect x="72" y="536" width="164" height="40" rx="20" fill="url(#badge)"/>
  <text x="111" y="562" fill="#0D2942" font-size="22" font-weight="800" font-family="Segoe UI, PingFang SC, Microsoft YaHei, sans-serif">开源展示版</text>
  <text x="258" y="553" fill="#DFECF8" font-size="18" font-weight="700" font-family="Segoe UI, PingFang SC, Microsoft YaHei, sans-serif">MIT 许可 / CI 校验 / Release / Discussions</text>
  <text x="258" y="575" fill="#97C8E6" font-size="14" font-weight="500" font-family="Segoe UI, PingFang SC, Microsoft YaHei, sans-serif">公共仓库仅保留展示与复现实验所需内容</text>

  <g filter="url(#glow)" opacity="0.24">
    <rect x="774" y="78" width="424" height="528" rx="34" fill="#0F172A"/>
  </g>
  <rect x="786" y="88" width="408" height="510" rx="30" fill="url(#panelBg)" stroke="url(#panelStroke)"/>

  <text x="820" y="152" fill="#F8FAFC" font-size="38" font-weight="800" font-family="Segoe UI, PingFang SC, Microsoft YaHei, sans-serif">核心结构</text>
  <text x="822" y="184" fill="#BDE8FB" font-size="18" font-weight="500" font-family="Segoe UI, PingFang SC, Microsoft YaHei, sans-serif">
    <tspan x="822" dy="0">从用户入口、业务服务到知识引擎</tspan>
    <tspan x="822" dy="26">与开源协作的完整交付链路</tspan>
  </text>

  <rect x="822" y="228" width="336" height="78" rx="22" fill="#10233A" fill-opacity="0.78" stroke="#38BDF8" stroke-opacity="0.28"/>
  <circle cx="850" cy="267" r="8" fill="#38BDF8"/>
  <text x="872" y="260" fill="#F8FAFC" font-size="23" font-weight="800" font-family="Segoe UI, PingFang SC, Microsoft YaHei, sans-serif">入口层</text>
  <text x="872" y="283" fill="#BDE8FB" font-size="16" font-weight="500" font-family="Segoe UI, PingFang SC, Microsoft YaHei, sans-serif">
    <tspan x="872" dy="0">Web 用户端 / 微信小程序</tspan>
    <tspan x="872" dy="22">运营后台 Studio</tspan>
  </text>

  <rect x="822" y="324" width="336" height="78" rx="22" fill="#12273A" fill-opacity="0.78" stroke="#34D399" stroke-opacity="0.28"/>
  <circle cx="850" cy="363" r="8" fill="#34D399"/>
  <text x="872" y="356" fill="#F8FAFC" font-size="23" font-weight="800" font-family="Segoe UI, PingFang SC, Microsoft YaHei, sans-serif">业务层</text>
  <text x="872" y="379" fill="#C8F5DE" font-size="16" font-weight="500" font-family="Segoe UI, PingFang SC, Microsoft YaHei, sans-serif">
    <tspan x="872" dy="0">社区 / 搜索 / 教务 / 跑腿</tspan>
    <tspan x="872" dy="22">消息 / 个人中心</tspan>
  </text>

  <rect x="822" y="420" width="336" height="78" rx="22" fill="#2D260F" fill-opacity="0.82" stroke="#FBBF24" stroke-opacity="0.32"/>
  <circle cx="850" cy="459" r="8" fill="#FBBF24"/>
  <text x="872" y="452" fill="#F8FAFC" font-size="23" font-weight="800" font-family="Segoe UI, PingFang SC, Microsoft YaHei, sans-serif">知识层</text>
  <text x="872" y="475" fill="#F8E09A" font-size="16" font-weight="500" font-family="Segoe UI, PingFang SC, Microsoft YaHei, sans-serif">
    <tspan x="872" dy="0">RAG / 检索增强 / 重排</tspan>
    <tspan x="872" dy="22">引用回溯 / 知识库问答</tspan>
  </text>

  <rect x="822" y="516" width="336" height="68" rx="22" fill="#20245F" fill-opacity="0.82" stroke="#A78BFA" stroke-opacity="0.30"/>
  <circle cx="850" cy="550" r="8" fill="#A78BFA"/>
  <text x="872" y="544" fill="#F8FAFC" font-size="23" font-weight="800" font-family="Segoe UI, PingFang SC, Microsoft YaHei, sans-serif">交付层</text>
  <text x="872" y="568" fill="#DCCBFF" font-size="16" font-weight="500" font-family="Segoe UI, PingFang SC, Microsoft YaHei, sans-serif">MIT / CI / Release / Discussions</text>
</svg>
